<svg width="40" height="40" viewBox="0 0 40 40" fill="none" xmlns="http://www.w3.org/2000/svg">
<g clip-path="url(#clip0)">
<path d="M0 20C0 20.663 0.263392 21.2989 0.732233 21.7678C1.20107 22.2366 1.83696 22.5 2.5 22.5H17.0833C17.1938 22.5 17.2998 22.5439 17.378 22.622C17.4561 22.7002 17.5 22.8062 17.5 22.9167V37.5C17.5 38.163 17.7634 38.7989 18.2322 39.2678C18.7011 39.7366 19.337 40 20 40C20.663 40 21.2989 39.7366 21.7678 39.2678C22.2366 38.7989 22.5 38.163 22.5 37.5V22.9167C22.5 22.8062 22.5439 22.7002 22.622 22.622C22.7002 22.5439 22.8062 22.5 22.9167 22.5H37.5C38.163 22.5 38.7989 22.2366 39.2678 21.7678C39.7366 21.2989 40 20.663 40 20C40 19.337 39.7366 18.7011 39.2678 18.2322C38.7989 17.7634 38.163 17.5 37.5 17.5H22.9167C22.8062 17.5 22.7002 17.4561 22.622 17.378C22.5439 17.2998 22.5 17.1938 22.5 17.0833V2.5C22.5 1.83696 22.2366 1.20107 21.7678 0.732233C21.2989 0.263392 20.663 0 20 0C19.337 0 18.7011 0.263392 18.2322 0.732233C17.7634 1.20107 17.5 1.83696 17.5 2.5V17.0833C17.5 17.1938 17.4561 17.2998 17.378 17.378C17.2998 17.4561 17.1938 17.5 17.0833 17.5H2.5C1.83696 17.5 1.20107 17.7634 0.732233 18.2322C0.263392 18.7011 0 19.337 0 20H0Z" fill="white"/>
</g>
<defs>
<clipPath id="clip0">
<rect width="40" height="40" fill="white"/>
</clipPath>
</defs>
</svg>
