<svg width="160" height="48" viewBox="0 0 160 48" fill="none" xmlns="http://www.w3.org/2000/svg">
<g clip-path="url(#clip0)">
<path d="M154.308 46.9875H5.60474C2.78411 46.9875 0.484987 44.6804 0.484987 41.8553V5.60888C0.484987 2.7836 2.78311 0.484987 5.60474 0.484987H154.308C157.138 0.484987 159.515 2.79339 159.515 5.60888V41.8553C159.515 44.6706 157.137 46.9875 154.308 46.9875Z" fill="white" stroke="black" stroke-width="0.969973"/>
<path d="M35.7565 23.48C35.7221 19.6549 38.8885 17.794 39.0333 17.7073C37.24 15.0928 34.4605 14.7355 33.4837 14.7071C31.1493 14.4614 28.8848 16.1039 27.6956 16.1039C26.4827 16.1039 24.6515 14.7308 22.6778 14.7711C20.138 14.8103 17.762 16.2808 16.4589 18.5642C13.7696 23.2201 15.7753 30.062 18.3519 33.8254C19.6407 35.6685 21.1468 37.7265 23.1181 37.6541C25.0467 37.5746 25.7671 36.4245 28.0944 36.4245C30.4004 36.4245 31.0769 37.6541 33.0873 37.6078C35.1571 37.5746 36.4602 35.7564 37.704 33.8966C39.1935 31.7841 39.7916 29.7036 39.8154 29.5968C39.7667 29.5802 35.7956 28.0646 35.7565 23.48Z" fill="black"/>
<path d="M31.9582 12.2313C32.9955 10.9341 33.7052 9.16932 33.5082 7.37842C32.0069 7.44488 30.1294 8.41688 29.0482 9.68558C28.0916 10.8036 27.2371 12.636 27.4579 14.3593C29.1443 14.4851 30.8759 13.5083 31.9582 12.2313Z" fill="black"/>
<path d="M63.6665 37.3893H60.9712L59.4948 32.7501H54.3631L52.9567 37.3893H50.3326L55.4169 21.5952H58.5573L63.6665 37.3893ZM59.0498 30.8037L57.7146 26.6795C57.5734 26.2582 57.3087 25.266 56.9183 23.7042H56.8708C56.7153 24.3759 56.4649 25.3681 56.1207 26.6795L54.8093 30.8037H59.0498Z" fill="black"/>
<path d="M76.7414 31.5549C76.7414 33.4918 76.218 35.0228 75.1712 36.1467C74.2337 37.1472 73.0694 37.6468 71.6796 37.6468C70.1795 37.6468 69.1019 37.108 68.4456 36.0304H68.3981V42.0297H65.8678V29.7498C65.8678 28.5321 65.8358 27.2824 65.774 26.0006H67.9993L68.1406 27.8058H68.188C69.0319 26.4457 70.3124 25.7668 72.0309 25.7668C73.3744 25.7668 74.4959 26.2974 75.3932 27.3595C76.2928 28.4229 76.7414 29.821 76.7414 31.5549ZM74.1636 31.6475C74.1636 30.539 73.9144 29.6252 73.4136 28.906C72.8664 28.1559 72.1318 27.7809 71.2108 27.7809C70.5866 27.7809 70.0193 27.9897 69.5125 28.4016C69.0046 28.817 68.6722 29.3593 68.5168 30.0311C68.4384 30.3444 68.3993 30.6007 68.3993 30.8025V32.7014C68.3993 33.5298 68.6533 34.2288 69.1612 34.7997C69.6692 35.3705 70.329 35.6554 71.1408 35.6554C72.0938 35.6554 72.8356 35.2875 73.3661 34.554C73.8978 33.8194 74.1636 32.8509 74.1636 31.6475Z" fill="black"/>
<path d="M89.8405 31.5549C89.8405 33.4918 89.3172 35.0228 88.2692 36.1467C87.3328 37.1472 86.1685 37.6468 84.7788 37.6468C83.2787 37.6468 82.201 37.108 81.5459 36.0304H81.4984V42.0297H78.9682V29.7498C78.9682 28.5321 78.9361 27.2824 78.8744 26.0006H81.0997L81.2409 27.8058H81.2884C82.131 26.4457 83.4116 25.7668 85.1313 25.7668C86.4736 25.7668 87.5951 26.2974 88.4947 27.3595C89.3907 28.4229 89.8405 29.821 89.8405 31.5549ZM87.2628 31.6475C87.2628 30.539 87.0124 29.6252 86.5115 28.906C85.9644 28.1559 85.2321 27.7809 84.31 27.7809C83.6845 27.7809 83.1184 27.9897 82.6105 28.4016C82.1025 28.817 81.7714 29.3593 81.6159 30.0311C81.5388 30.3444 81.4984 30.6007 81.4984 30.8025V32.7014C81.4984 33.5298 81.7524 34.2288 82.258 34.7997C82.7659 35.3694 83.4258 35.6554 84.24 35.6554C85.193 35.6554 85.9347 35.2875 86.4652 34.554C86.9969 33.8194 87.2628 32.8509 87.2628 31.6475Z" fill="black"/>
<path d="M104.486 32.9601C104.486 34.3036 104.019 35.3966 103.083 36.2405C102.054 37.1626 100.621 37.6231 98.7807 37.6231C97.0812 37.6231 95.7187 37.2956 94.6874 36.6392L95.2737 34.5303C96.3845 35.202 97.6034 35.5391 98.9314 35.5391C99.8844 35.5391 100.626 35.3231 101.159 34.8934C101.69 34.4638 101.954 33.887 101.954 33.1678C101.954 32.5269 101.736 31.9869 101.298 31.549C100.862 31.1111 100.135 30.704 99.1189 30.3278C96.3537 29.2964 94.9722 27.7856 94.9722 25.7989C94.9722 24.5005 95.4564 23.4359 96.4261 22.6076C97.3921 21.778 98.681 21.3638 100.293 21.3638C101.73 21.3638 102.924 21.6142 103.877 22.1138L103.244 24.1765C102.354 23.6923 101.348 23.4502 100.221 23.4502C99.3314 23.4502 98.6359 23.6697 98.1374 24.1065C97.7161 24.497 97.5049 24.9729 97.5049 25.5366C97.5049 26.1609 97.7458 26.6771 98.23 27.083C98.6513 27.4581 99.4168 27.8639 100.528 28.3019C101.887 28.849 102.885 29.4887 103.527 30.2221C104.166 30.9532 104.486 31.8683 104.486 32.9601Z" fill="black"/>
<path d="M112.851 27.8995H110.062V33.4289C110.062 34.8353 110.554 35.5379 111.539 35.5379C111.991 35.5379 112.366 35.4987 112.663 35.4204L112.733 37.3418C112.234 37.5282 111.578 37.6219 110.765 37.6219C109.766 37.6219 108.985 37.3169 108.421 36.7081C107.86 36.098 107.577 35.075 107.577 33.6378V27.8972H105.916V25.9983H107.577V23.913L110.062 23.163V25.9983H112.851V27.8995Z" fill="black"/>
<path d="M125.435 31.6013C125.435 33.3518 124.934 34.789 123.935 35.9129C122.887 37.0701 121.496 37.6469 119.762 37.6469C118.091 37.6469 116.761 37.0926 115.769 35.9842C114.776 34.8757 114.28 33.4764 114.28 31.79C114.28 30.0252 114.791 28.5796 115.815 27.4557C116.837 26.3306 118.216 25.7681 119.95 25.7681C121.621 25.7681 122.965 26.3223 123.98 27.432C124.951 28.5084 125.435 29.8982 125.435 31.6013ZM122.81 31.6831C122.81 30.6328 122.586 29.732 122.131 28.9808C121.601 28.0717 120.842 27.6183 119.86 27.6183C118.843 27.6183 118.07 28.0729 117.539 28.9808C117.085 29.7332 116.861 30.6482 116.861 31.7306C116.861 32.7809 117.085 33.6817 117.539 34.4318C118.087 35.3409 118.851 35.7943 119.837 35.7943C120.803 35.7943 121.562 35.3314 122.109 34.4081C122.575 33.6426 122.81 32.7323 122.81 31.6831Z" fill="black"/>
<path d="M133.66 28.2259C133.409 28.1796 133.142 28.1559 132.862 28.1559C131.972 28.1559 131.284 28.4918 130.799 29.1647C130.378 29.7581 130.167 30.5082 130.167 31.4137V37.3893H127.638L127.661 29.5872C127.661 28.2746 127.629 27.0795 127.567 26.0018H129.77L129.863 28.1808H129.933C130.2 27.4319 130.621 26.829 131.198 26.3769C131.762 25.9698 132.371 25.7668 133.027 25.7668C133.261 25.7668 133.472 25.7835 133.66 25.8131V28.2259Z" fill="black"/>
<path d="M144.976 31.1563C144.976 31.6096 144.947 31.9918 144.884 32.3039H137.293C137.322 33.429 137.689 34.2895 138.394 34.8829C139.034 35.4134 139.861 35.6792 140.877 35.6792C142.001 35.6792 143.026 35.5 143.948 35.1404L144.345 36.8969C143.267 37.3669 141.995 37.6007 140.527 37.6007C138.761 37.6007 137.375 37.0809 136.366 36.0424C135.36 35.0039 134.855 33.6094 134.855 31.8601C134.855 30.1427 135.324 28.7126 136.263 27.5721C137.245 26.3544 138.573 25.7456 140.244 25.7456C141.886 25.7456 143.128 26.3544 143.972 27.5721C144.64 28.5394 144.976 29.7357 144.976 31.1563ZM142.563 30.5C142.58 29.7499 142.415 29.1019 142.072 28.5548C141.634 27.851 140.961 27.4997 140.056 27.4997C139.229 27.4997 138.556 27.8427 138.042 28.5311C137.62 29.0782 137.37 29.7345 137.293 30.4988H142.563V30.5Z" fill="black"/>
<path d="M58.2133 11.8788C58.2133 13.2756 57.7943 14.3272 56.9576 15.0333C56.1826 15.6849 55.0813 16.0113 53.6547 16.0113C52.9474 16.0113 52.3421 15.9804 51.8353 15.9187V8.28628C52.4964 8.17947 53.2085 8.12488 53.9775 8.12488C55.3364 8.12488 56.3607 8.42039 57.0514 9.01143C57.8252 9.6796 58.2133 10.635 58.2133 11.8788ZM56.9018 11.9132C56.9018 11.0076 56.6621 10.3134 56.1826 9.82914C55.7032 9.34611 55.0029 9.104 54.0808 9.104C53.6891 9.104 53.3556 9.13011 53.0791 9.1847V14.987C53.2322 15.0108 53.5123 15.0214 53.9194 15.0214C54.8712 15.0214 55.6058 14.7568 56.1233 14.2275C56.6407 13.6982 56.9018 12.9267 56.9018 11.9132Z" fill="black"/>
<path d="M65.1669 13.0989C65.1669 13.9593 64.9212 14.6643 64.4299 15.2173C63.9148 15.7858 63.2324 16.0694 62.3803 16.0694C61.559 16.0694 60.905 15.7977 60.4173 15.2517C59.9307 14.707 59.6874 14.0198 59.6874 13.1914C59.6874 12.3251 59.9378 11.6142 60.441 11.0623C60.9442 10.5104 61.6207 10.2339 62.4728 10.2339C63.2941 10.2339 63.954 10.5057 64.4536 11.0504C64.9283 11.5797 65.1669 12.2633 65.1669 13.0989ZM63.8768 13.1392C63.8768 12.6229 63.7653 12.1803 63.5433 11.8112C63.2822 11.3649 62.9108 11.1418 62.4277 11.1418C61.9281 11.1418 61.5483 11.3649 61.2872 11.8112C61.0641 12.1803 60.9537 12.6301 60.9537 13.1618C60.9537 13.678 61.0653 14.1207 61.2872 14.4898C61.5566 14.936 61.9316 15.1592 62.4159 15.1592C62.8906 15.1592 63.2632 14.9325 63.5315 14.4779C63.7617 14.1017 63.8768 13.6555 63.8768 13.1392Z" fill="black"/>
<path d="M74.4903 10.3478L72.7398 15.9424H71.6004L70.8753 13.513C70.6913 12.9065 70.5418 12.3036 70.4255 11.7055H70.4029C70.2949 12.3203 70.1454 12.922 69.9531 13.513L69.1829 15.9424H68.0305L66.3844 10.3478H67.6626L68.2952 13.0074C68.4483 13.6364 68.5741 14.2358 68.6749 14.8031H68.6975C68.7901 14.3355 68.9432 13.7397 69.1592 13.0193L69.9531 10.349H70.9667L71.7274 12.9623C71.9114 13.5996 72.0609 14.2132 72.176 14.8043H72.2105C72.2947 14.2287 72.4217 13.6151 72.5902 12.9623L73.2691 10.349H74.4903V10.3478Z" fill="black"/>
<path d="M80.9383 15.9425H79.6946V12.7381C79.6946 11.7507 79.3195 11.2569 78.5671 11.2569C78.198 11.2569 77.9001 11.3922 77.6687 11.664C77.4396 11.9358 77.3233 12.2562 77.3233 12.623V15.9413H76.0795V11.9465C76.0795 11.4551 76.0641 10.9223 76.0344 10.3455H77.1275L77.1856 11.2201H77.2201C77.3648 10.9484 77.5808 10.7241 77.8645 10.5449C78.2015 10.336 78.5789 10.2303 78.992 10.2303C79.5142 10.2303 79.9485 10.3989 80.2939 10.7371C80.7235 11.1513 80.9383 11.7696 80.9383 12.5909V15.9425Z" fill="black"/>
<path d="M84.3684 15.9425H83.1259V7.78076H84.3684V15.9425Z" fill="black"/>
<path d="M91.6911 13.0989C91.6911 13.9593 91.4454 14.6643 90.9541 15.2173C90.439 15.7858 89.7554 16.0694 88.9044 16.0694C88.082 16.0694 87.428 15.7977 86.9414 15.2517C86.4548 14.707 86.2115 14.0198 86.2115 13.1914C86.2115 12.3251 86.462 11.6142 86.9652 11.0623C87.4684 10.5104 88.1449 10.2339 88.9958 10.2339C89.8183 10.2339 90.477 10.5057 90.9778 11.0504C91.4525 11.5797 91.6911 12.2633 91.6911 13.0989ZM90.3998 13.1392C90.3998 12.6229 90.2883 12.1803 90.0663 11.8112C89.8064 11.3649 89.4337 11.1418 88.9519 11.1418C88.4511 11.1418 88.0713 11.3649 87.8114 11.8112C87.5883 12.1803 87.4779 12.6301 87.4779 13.1618C87.4779 13.678 87.5894 14.1207 87.8114 14.4898C88.0808 14.936 88.4558 15.1592 88.94 15.1592C89.4148 15.1592 89.7862 14.9325 90.0544 14.4779C90.2859 14.1017 90.3998 13.6555 90.3998 13.1392Z" fill="black"/>
<path d="M97.7103 15.9425H96.5935L96.5009 15.298H96.4665C96.0843 15.8119 95.5396 16.0694 94.8323 16.0694C94.3041 16.0694 93.8769 15.8997 93.5552 15.5627C93.2633 15.2565 93.1173 14.8755 93.1173 14.4233C93.1173 13.7397 93.4021 13.2187 93.9754 12.8579C94.5474 12.4971 95.3521 12.3203 96.3882 12.3286V12.2242C96.3882 11.4872 96.0013 11.1192 95.2263 11.1192C94.6744 11.1192 94.1878 11.2581 93.7677 11.5334L93.5149 10.7169C94.0347 10.3953 94.6768 10.2339 95.434 10.2339C96.8961 10.2339 97.6296 11.0053 97.6296 12.5482V14.6085C97.6296 15.1675 97.6569 15.6125 97.7103 15.9425ZM96.419 14.0198V13.157C95.0471 13.1333 94.3611 13.5095 94.3611 14.2845C94.3611 14.5764 94.4394 14.7948 94.5996 14.9408C94.7599 15.0868 94.964 15.1592 95.2073 15.1592C95.4803 15.1592 95.7354 15.0725 95.968 14.9004C96.2018 14.7272 96.3454 14.5076 96.3988 14.2382C96.4119 14.1777 96.419 14.1041 96.419 14.0198Z" fill="black"/>
<path d="M104.778 15.9425H103.674L103.616 15.0441H103.581C103.229 15.7277 102.628 16.0695 101.785 16.0695C101.111 16.0695 100.549 15.8048 100.104 15.2755C99.6591 14.7462 99.4371 14.059 99.4371 13.2152C99.4371 12.3096 99.6781 11.5762 100.162 11.016C100.631 10.4938 101.205 10.2327 101.889 10.2327C102.64 10.2327 103.166 10.4855 103.465 10.9923H103.489V7.78076H104.734V14.4352C104.734 14.98 104.748 15.482 104.778 15.9425ZM103.489 13.5831V12.6503C103.489 12.4889 103.477 12.3583 103.454 12.2586C103.384 11.9595 103.234 11.7079 103.005 11.505C102.773 11.302 102.494 11.2 102.173 11.2C101.709 11.2 101.346 11.3839 101.078 11.753C100.814 12.1221 100.68 12.5933 100.68 13.1689C100.68 13.7219 100.807 14.1706 101.062 14.5159C101.331 14.8838 101.694 15.0678 102.149 15.0678C102.557 15.0678 102.884 14.9147 103.132 14.6073C103.371 14.3237 103.489 13.9819 103.489 13.5831Z" fill="black"/>
<path d="M115.415 13.0989C115.415 13.9593 115.17 14.6643 114.678 15.2173C114.163 15.7858 113.482 16.0694 112.629 16.0694C111.809 16.0694 111.155 15.7977 110.666 15.2517C110.179 14.707 109.936 14.0198 109.936 13.1914C109.936 12.3251 110.186 11.6142 110.69 11.0623C111.193 10.5104 111.869 10.2339 112.723 10.2339C113.543 10.2339 114.204 10.5057 114.702 11.0504C115.177 11.5797 115.415 12.2633 115.415 13.0989ZM114.127 13.1392C114.127 12.6229 114.015 12.1803 113.793 11.8112C113.531 11.3649 113.16 11.1418 112.676 11.1418C112.178 11.1418 111.798 11.3649 111.536 11.8112C111.313 12.1803 111.202 12.6301 111.202 13.1618C111.202 13.678 111.314 14.1207 111.536 14.4898C111.805 14.936 112.18 15.1592 112.664 15.1592C113.139 15.1592 113.513 14.9325 113.781 14.4779C114.01 14.1017 114.127 13.6555 114.127 13.1392Z" fill="black"/>
<path d="M122.103 15.9424H120.86V12.738C120.86 11.7505 120.485 11.2568 119.732 11.2568C119.363 11.2568 119.065 11.3921 118.835 11.6639C118.604 11.9357 118.489 12.2561 118.489 12.6228V15.9412H117.244V11.9464C117.244 11.455 117.23 10.9221 117.2 10.3453H118.292L118.35 11.22H118.385C118.531 10.9482 118.747 10.7239 119.029 10.5447C119.367 10.3359 119.744 10.2302 120.158 10.2302C120.679 10.2302 121.113 10.3988 121.459 10.737C121.889 11.1512 122.103 11.7695 122.103 12.5908V15.9424Z" fill="black"/>
<path d="M130.473 11.2794H129.104V13.9972C129.104 14.688 129.347 15.0333 129.829 15.0333C130.052 15.0333 130.237 15.0143 130.383 14.9752L130.415 15.9187C130.17 16.0113 129.847 16.0575 129.449 16.0575C128.958 16.0575 128.576 15.908 128.299 15.6089C128.021 15.3099 127.884 14.8066 127.884 14.1005V11.2794H127.066V10.3478H127.884V9.32238L129.103 8.95447V10.3466H130.472V11.2794H130.473Z" fill="black"/>
<path d="M137.058 15.9425H135.813V12.7618C135.813 11.759 135.438 11.2569 134.687 11.2569C134.11 11.2569 133.716 11.5477 133.5 12.1292C133.463 12.2515 133.442 12.401 133.442 12.5767V15.9413H132.199V7.78076H133.442V11.1525H133.466C133.857 10.5389 134.419 10.2327 135.146 10.2327C135.661 10.2327 136.087 10.4012 136.426 10.7395C136.847 11.1608 137.058 11.7874 137.058 12.6158V15.9425Z" fill="black"/>
<path d="M143.85 12.8804C143.85 13.1035 143.834 13.2911 143.804 13.4442H140.074C140.09 13.9972 140.268 14.4185 140.614 14.7105C140.93 14.9716 141.337 15.1021 141.835 15.1021C142.387 15.1021 142.89 15.0143 143.344 14.8375L143.538 15.7015C143.008 15.9317 142.383 16.0468 141.661 16.0468C140.794 16.0468 140.112 15.7917 139.618 15.2813C139.122 14.771 138.876 14.0862 138.876 13.227C138.876 12.3831 139.105 11.6806 139.567 11.1204C140.049 10.5222 140.7 10.2231 141.523 10.2231C142.328 10.2231 142.939 10.5222 143.352 11.1204C143.685 11.5951 143.85 12.1826 143.85 12.8804ZM142.663 12.5588C142.673 12.1897 142.591 11.8716 142.423 11.6034C142.207 11.258 141.878 11.0848 141.433 11.0848C141.027 11.0848 140.696 11.2533 140.443 11.5915C140.236 11.8609 140.114 12.1826 140.074 12.5588H142.663Z" fill="black"/>
</g>
<defs>
<clipPath id="clip0">
<rect width="160" height="47.4725" fill="white"/>
</clipPath>
</defs>
</svg>
