<svg width="188" height="55" viewBox="0 0 188 55" fill="none" xmlns="http://www.w3.org/2000/svg">
    <path fill="#333332" d="M187.165 17.9385H183.009V12.8598C183.009 12.5908 182.891 12.3425 182.684 12.1785C182.484 12.0192 182.227 11.9625 181.983 12.0247L178.326 12.9373C177.951 13.031 177.69 13.3744 177.69 13.7729V17.9385H175.606C175.146 17.9385 174.771 18.3255 174.771 18.8015V21.8751C174.771 22.3511 175.146 22.7386 175.606 22.7386H177.69V35.1385C177.737 40.4094 181.063 41.1356 184.649 41.1356C185.004 41.1356 185.358 41.1254 185.718 41.1144C186.082 41.1034 186.45 41.092 186.83 41.092L186.872 41.0892C187.361 41.0255 187.665 40.6789 187.665 40.1848V36.8914C187.665 36.4154 187.29 36.0287 186.83 36.0287H185.572C183.752 36.0287 183.009 35.2101 183.009 33.2034V22.7386H187.165C187.626 22.7386 188 22.3511 188 21.8751V18.8015C188 18.3255 187.626 17.9385 187.165 17.9385Z"/>
    <path fill="#333332" d="M164.806 17.5871C162.629 17.5871 160.923 18.2673 159.726 19.6099V18.8015C159.726 18.3094 159.368 17.9384 158.891 17.9384H155.033C154.556 17.9384 154.198 18.3094 154.198 18.8015V40.1848C154.198 40.6769 154.556 41.0483 155.033 41.0483H158.891C159.368 41.0483 159.726 40.6769 159.726 40.1848V26.7927C159.726 24.3152 161.211 22.6504 163.422 22.6504C165.64 22.6504 167.075 24.2936 167.075 26.8364V40.1848C167.075 40.6769 167.433 41.0483 167.909 41.0483H171.768C172.244 41.0483 172.603 40.6769 172.603 40.1848V25.7829C172.603 20.8042 169.543 17.5871 164.806 17.5871Z" />
    <path fill="#333332" d="M145.348 27.2028H137.135C137.183 26.4683 137.276 25.9554 137.442 25.5057L137.45 25.4825C137.984 23.6297 139.267 22.6505 141.158 22.6505C143.194 22.6505 144.637 23.7736 145.12 25.7547C145.223 26.0757 145.303 26.5934 145.348 27.2028ZM141.158 17.5873C136.676 17.5873 133.28 20.1569 132.075 24.4534C131.68 25.7359 131.51 27.3365 131.557 29.3393C131.557 31.8019 131.881 33.7837 132.544 35.3895C134.011 39.2058 137.217 41.356 141.573 41.443C141.626 41.4438 141.68 41.4441 141.733 41.4441C145.359 41.4441 148.469 39.9237 150.287 37.2495C150.544 36.8451 150.477 36.4403 150.097 36.1087L147.498 33.8711C147.256 33.6598 147.031 33.6402 146.884 33.6575C146.729 33.6779 146.501 33.7653 146.294 34.0674C145.26 35.602 143.828 36.3797 142.044 36.3797C139.609 36.34 138.062 35.3404 137.435 33.3754C137.25 32.9498 137.169 32.3314 137.097 31.652H150.092C150.59 31.652 150.925 31.3074 150.927 30.7936C150.971 29.3098 150.965 28.1446 150.799 26.9302C150.094 20.7304 146.85 17.5873 141.158 17.5873Z" />
    <path fill="#333332" d="M122.753 29.2961C122.753 31.7174 122.662 32.3421 122.469 33.1096C122.03 34.9475 120.701 36.0018 118.823 36.0018C116.966 36.0018 115.522 34.8967 114.954 33.0238C114.774 32.5518 114.559 31.5301 114.559 29.3398C114.559 27.6089 114.71 26.4263 115.043 25.5967C115.657 23.7143 117.02 22.6345 118.781 22.6345C120.646 22.6345 122.009 23.7309 122.431 25.5849C122.659 26.3819 122.753 26.9405 122.753 29.2961ZM127.429 17.9383H123.586C123.111 17.9383 122.753 18.3084 122.753 18.7994V19.3796C121.476 18.1751 119.817 17.5885 117.694 17.5885C113.939 17.5885 110.873 19.9237 109.694 23.6742C109.085 25.4401 109.007 27.6297 109.007 29.3398C109.007 31.5844 109.183 33.2937 109.564 34.7288C110.893 39.2267 114.786 40.829 117.987 40.829C119.981 40.829 121.583 40.2586 122.752 39.1366C122.73 41.0162 122.244 42.3691 121.269 43.2696C119.991 44.4485 117.829 44.8726 114.627 44.5681C113.799 44.5681 113.71 45.1393 113.71 45.373L113.585 48.9717C113.585 49.4752 113.864 49.8124 114.342 49.8753C115.135 49.9583 115.906 50 116.651 50C120.232 50 123.215 49.0453 125.197 47.2341C127.231 45.3742 128.262 42.65 128.262 39.137V18.7994C128.262 18.3084 127.904 17.9383 127.429 17.9383Z" />
    <path fill="#333332" d="M107.133 18.0289C106.546 17.7909 105.9 17.6752 105.157 17.6752C103.184 17.6752 101.577 18.4888 100.371 20.0953V18.8019C100.371 18.3259 99.997 17.9384 99.5365 17.9384H95.6775C95.217 17.9384 94.8426 18.3255 94.8426 18.8015V40.1848C94.8426 40.6608 95.2173 41.0483 95.6779 41.0483H99.5365C99.997 41.0483 100.371 40.6608 100.371 40.1848V27.7589C100.371 25.0799 102.279 23.7696 104.197 23.6571C104.862 23.5623 105.239 23.5933 105.664 23.6787C106.138 23.7739 106.586 23.4789 106.692 23.0064L107.715 19.1917C107.819 18.7063 107.569 18.2063 107.133 18.0289Z" />
    <path fill="#333332" d="M85.4221 31.0372V32.984C85.4221 35.3023 83.0531 36.6874 80.7624 36.6874C79.2197 36.6874 77.5708 36.0029 77.5708 34.0816C77.5708 32.1469 79.1926 31.0372 82.0206 31.0372H85.4221ZM81.7692 17.5873C77.506 17.5873 74.1029 19.5684 73.0996 22.6348C73.0142 22.8956 73.0437 23.1789 73.1799 23.4126C73.3075 23.6313 73.5186 23.7835 73.7607 23.8319L77.5642 24.7996C77.9626 24.874 78.3592 24.6572 78.5124 24.2843C78.9474 23.2308 80.1482 22.6506 81.8949 22.6506C84.2023 22.6506 85.4221 23.7792 85.4221 25.9149V26.8519H81.0561C75.3856 26.8519 72 29.6859 72 34.4333C72 39.5693 75.8985 41.3993 79.5464 41.3993C81.9931 41.3993 84.0153 40.6614 85.4221 39.2656V40.185C85.4221 40.661 85.7969 41.048 86.2575 41.048H90.1157C90.5762 41.048 90.951 40.661 90.951 40.185V25.3881C90.951 20.795 87.1755 17.5873 81.7692 17.5873Z" />
    <path fill="#FF875B" d="M37.72 -1.80801e-06H22.2799C21.7639 -1.80801e-06 21.3505 0.429579 21.3393 0.96354C21.0273 15.9727 13.4411 30.2183 0.383768 40.3085C-0.0307824 40.6286 -0.125226 41.2305 0.177849 41.6639L9.21164 54.5935C9.51898 55.0336 10.1178 55.1329 10.5393 54.8097C18.7037 48.5418 25.2707 40.9806 29.9999 32.5997C34.7291 40.9806 41.2965 48.5418 49.461 54.8097C49.8821 55.1329 50.4809 55.0336 50.7886 54.5935L59.8224 41.6639C60.1251 41.2305 60.0307 40.6286 59.6165 40.3085C46.5587 30.2183 38.9726 15.9727 38.661 0.96354C38.6498 0.429579 38.236 -1.80801e-06 37.72 -1.80801e-06Z" />
</svg>
