<svg width="160" height="160" viewBox="0 0 160 160" fill="none" xmlns="http://www.w3.org/2000/svg">
<path fill-rule="evenodd" clip-rule="evenodd" d="M143 130.554V130.54C132.997 121.59 117.719 114.892 99.7939 112.011C99.5247 109.817 99.176 107.632 98.7483 105.462C97.8836 106.447 96.7716 107.079 95.5393 107.49V102.202C102.117 97.3919 107.212 89.6238 109.724 80.308C112.3 80.259 115.375 77.0007 116.993 72.3734C118.826 67.1346 118.098 62.1249 115.369 61.1838C114.107 60.7487 112.637 61.2597 111.241 62.4527C111.178 61.7409 111.1 61.0346 111.008 60.3345L116.903 51.8832H113.645C115.557 51.4065 117.32 50.4644 118.774 49.142C120.228 47.8197 121.327 46.1586 121.973 44.3089L116.916 44.1477C119.907 43.0084 122.492 41.0157 124.345 38.4205L117.89 37.9742C120.82 36.8494 123.259 34.7391 124.782 32.0114C122.264 32.9578 119.498 33.0364 116.928 32.2345C119.71 31.1477 122.014 29.1189 123.434 26.5073C120.074 28.3939 116.31 29.4579 112.453 29.6109C108.596 29.764 104.759 29.0018 101.258 27.3875C99.5791 26.5988 97.9967 25.6132 96.4146 24.6278C94.4904 23.4293 92.5666 22.2311 90.4698 21.3875C87.3545 20.163 83.9781 19.7391 80.6538 20.1552C77.3295 20.5713 74.1648 21.8138 71.4531 23.7677C70.8944 24.18 70.3474 24.6263 69.7996 25.0734C68.0086 26.5349 66.2082 28.0039 63.9612 28.3172C62.4856 28.3954 61.0059 28.3373 59.5411 28.1437C51.0628 27.7966 44.6074 36.7345 44.3951 45.1518C44.2481 50.9822 46.2217 56.5092 48.8057 61.8276C49.0111 62.2504 49.2204 62.672 49.4328 63.0922C49.2069 62.8598 48.9777 62.6449 48.7465 62.4486C47.3531 61.2653 45.8878 60.7575 44.6323 61.1806C41.9103 62.098 41.1736 67.0442 43.0091 72.3376C44.6259 77.0002 47.6765 80.1816 50.2494 80.2551C52.7598 89.6061 57.8709 97.4025 64.4732 102.22V107.473C63.2613 107.062 62.1673 106.434 61.3141 105.462C60.8837 107.629 60.5338 109.811 60.2649 112.003C42.3157 114.879 27.0222 121.581 17 130.54V130.572C17 140.456 17 150.984 17 160C44.6323 160 129.269 160 143 160C143 146.467 143 156.513 143 130.554Z" fill="white"/>
</svg>
