<svg width="160" height="160" viewBox="0 0 160 160" fill="none" xmlns="http://www.w3.org/2000/svg">
<path d="M78.3031 30.0149C69.5215 32.4737 58.3493 40.8943 53.8609 44.7972C53.2755 44.0654 51.607 42.0164 49.6165 39.6746C47.1283 36.7474 43.1766 36.6011 40.9812 37.1865C38.7858 37.7719 35.8586 39.0892 34.2486 43.0409C33.707 44.3703 32.8673 45.9481 32.008 47.5627C30.313 50.7476 28.5419 54.0753 28.8333 55.9206C29.2724 58.7015 31.175 66.6049 35.1268 70.9957C39.0785 75.3865 48.1528 74.2157 51.3728 73.7766C53.9487 73.4253 55.5684 72.4593 56.0563 72.0202C55.1781 76.7526 53.3047 87.0954 52.8364 90.608C52.368 94.1207 52.1534 96.6576 52.1046 97.4869L53.8609 91.6325C54.3976 92.7058 55.4709 95.3794 55.4709 97.4869C55.4709 97.9301 55.4833 98.5389 55.4991 99.2792L55.5023 99.4292C55.5813 103.126 55.7261 109.897 54.8854 115.782C53.8609 122.954 50.0872 130.552 42.607 133.766C39.881 134.938 37.8198 135.613 35.9697 136.22C32.7429 137.278 30.1581 138.125 25.8083 141.025C20.3332 144.675 17.7201 151.74 17.0979 154.816L18.9644 152.846C18.4132 153.999 17.3316 156.662 16.399 160H17.6392C17.8605 159.586 18.0293 159.268 18.1349 159.068C18.0346 159.347 17.9253 159.66 17.809 160H111.12C110.901 158.062 110.652 156.068 110.42 154.538C110.388 154.322 110.353 154.052 110.313 153.738C109.849 150.123 108.623 140.554 100.6 137.01C99.4454 136.5 98.3425 136.026 97.2924 135.576C90.4094 132.621 85.795 130.641 83.7988 125.72C81.9581 121.182 81.6763 115.768 81.7655 113.627C82.8 113.716 86.9342 113.959 95.1956 114.216C105.522 114.537 110.338 112.323 111.954 111.107C113.247 110.134 113.442 108.457 113.378 107.741C113.892 107.642 114.873 107.248 114.683 106.465C114.493 105.682 113.566 105.249 113.126 105.131C113.388 104.938 114.066 104.012 114.683 101.853C115.454 99.1545 115.693 95.0014 113.879 90.149C112.428 86.2672 110.705 82.6664 110.025 81.3513C109.979 79.6129 109.825 75.5285 109.571 73.0978C111.518 72.717 112.24 72.0202 114.207 70.1234C114.348 69.9874 114.496 69.8453 114.65 69.6966C115.319 69.0542 115.847 68.5406 116.322 68.0792C117.489 66.9447 118.332 66.1256 120.137 64.4815L120.289 64.3435C122.836 62.0264 126.769 58.4487 127.303 51.6024C127.847 44.6186 125.126 41.0814 120.41 41.0814C116.637 41.0814 112.368 44.0744 110.705 45.571C111.279 43.6361 112.437 39.4488 112.473 38.1791C112.519 36.5918 112.524 36.3573 112.116 35.9031C112.034 35.8121 111.943 35.7256 111.835 35.6247L111.814 35.6043C111.384 35.2005 110.697 34.5549 109.323 32.5198C107.924 30.449 106.984 28.9473 106.689 28.4553C106.681 28.2661 107.034 27.7287 108.505 27.093C108.302 27.1294 108.105 27.1642 107.913 27.1982C106.671 27.4177 105.647 27.5987 104.486 27.9331C105.649 27.261 107.135 26.3966 107.733 26.0484C107.014 26.1975 105.793 26.5245 104.444 26.8859C102.573 27.3873 100.454 27.9549 99.082 28.2056C99.2114 28.1101 99.3779 27.9883 99.5728 27.8458L99.5742 27.8448C100.817 26.936 103.211 25.1851 104.486 24.0276C103.954 24.2584 103.335 24.545 102.661 24.8576C99.8869 26.1442 96.1621 27.8716 93.5245 27.9658C92.5382 28.001 91.7808 27.96 91.0462 27.9201C88.7286 27.7944 86.6381 27.681 78.3031 30.0149Z" fill="white"/>
</svg>
