<svg width="16" height="16" viewBox="0 0 16 16" fill="none" xmlns="http://www.w3.org/2000/svg">
<path d="M10.6667 1.33329C10.6667 0.965103 10.3682 0.666626 10 0.666626H2.66667C1.93333 0.666626 1.33333 1.26663 1.33333 1.99996V10.6666C1.33333 11.0348 1.63181 11.3333 2 11.3333C2.36819 11.3333 2.66667 11.0348 2.66667 10.6666V2.99996C2.66667 2.44767 3.11438 1.99996 3.66667 1.99996H10C10.3682 1.99996 10.6667 1.70148 10.6667 1.33329ZM12.6667 3.33329H5.33333C4.6 3.33329 4 3.93329 4 4.66663V14C4 14.7333 4.6 15.3333 5.33333 15.3333H12.6667C13.4 15.3333 14 14.7333 14 14V4.66663C14 3.93329 13.4 3.33329 12.6667 3.33329ZM12.6667 14H5.33333V4.66663H12.6667V14Z" fill="black"/>
</svg>
