<svg width="160" height="160" viewBox="0 0 160 160" fill="none" xmlns="http://www.w3.org/2000/svg">
<g clip-path="url(#clip0)">
<path fill-rule="evenodd" clip-rule="evenodd" d="M79.9934 145.976C116.444 145.976 145.992 116.427 145.992 79.9772C145.992 43.527 116.444 13.9783 79.9934 13.9783C43.5432 13.9783 13.9945 43.527 13.9945 79.9772C13.9945 116.427 43.5432 145.976 79.9934 145.976ZM159.993 79.9772C159.993 124.16 124.176 159.977 79.9934 159.977C35.8106 159.977 -0.0065918 124.16 -0.0065918 79.9772C-0.0065918 35.7944 35.8106 -0.0228271 79.9934 -0.0228271C124.176 -0.0228271 159.993 35.7944 159.993 79.9772Z" fill="#C12026"/>
<path d="M70.0001 110.269C69.952 108.962 70.1651 107.658 70.6268 106.434C71.0885 105.21 71.7896 104.091 72.6892 103.141C73.5887 102.191 74.6685 101.43 75.8656 100.902C77.0627 100.375 78.3529 100.091 79.6608 100.068H79.8408C82.4718 100.073 84.9986 101.097 86.8916 102.924C88.7846 104.751 89.8968 107.24 89.995 109.869C90.0439 111.176 89.8315 112.481 89.3701 113.705C88.9087 114.929 88.2076 116.049 87.308 116.999C86.4083 117.949 85.328 118.71 84.1306 119.237C82.9331 119.765 81.6424 120.048 80.3342 120.07H80.1542C77.5243 120.061 74.9993 119.037 73.107 117.211C71.2147 115.384 70.1015 112.897 70.0001 110.269ZM73.3337 83.3203V43.3172C73.3337 41.549 74.0361 39.8532 75.2864 38.6028C76.5368 37.3525 78.2326 36.65 80.0009 36.65C81.7691 36.65 83.4649 37.3525 84.7153 38.6028C85.9656 39.8532 86.668 41.549 86.668 43.3172V83.3203C86.668 85.0886 85.9656 86.7844 84.7153 88.0347C83.4649 89.285 81.7691 89.9875 80.0009 89.9875C78.2326 89.9875 76.5368 89.285 75.2864 88.0347C74.0361 86.7844 73.3337 85.0886 73.3337 83.3203Z" fill="#C12026"/>
</g>
<defs>
<clipPath id="clip0">
<rect width="160" height="160" fill="white"/>
</clipPath>
</defs>
</svg>
