<svg width="15" height="14" viewBox="0 0 15 14" fill="none" xmlns="http://www.w3.org/2000/svg">
<g clip-path="url(#clip0)">
<path d="M2.60938 5.60524C2.74628 5.74174 2.93172 5.8184 3.12505 5.8184C3.31838 5.8184 3.50381 5.74174 3.64072 5.60524L7.3968 1.85849C7.42431 1.83135 7.4614 1.81613 7.50005 1.81613C7.5387 1.81613 7.57579 1.83135 7.6033 1.85849L11.3594 5.60524C11.4958 5.74201 11.6809 5.81899 11.874 5.81927C11.9697 5.8194 12.0644 5.8007 12.1528 5.76423C12.2412 5.72775 12.3215 5.67423 12.3893 5.6067C12.457 5.53917 12.5107 5.45897 12.5475 5.37067C12.5842 5.28237 12.6031 5.1877 12.6033 5.09207C12.6034 4.99643 12.5847 4.90171 12.5482 4.8133C12.5118 4.7249 12.4582 4.64454 12.3907 4.57683L8.01572 0.21291C7.87881 0.0764081 7.69338 -0.000244141 7.50005 -0.000244141C7.30672 -0.000244141 7.12129 0.0764081 6.98438 0.21291L2.60938 4.57683C2.54174 4.64429 2.48808 4.72443 2.45146 4.81267C2.41484 4.90091 2.396 4.9955 2.396 5.09103C2.396 5.18657 2.41484 5.28116 2.45146 5.3694C2.48808 5.45763 2.54174 5.53778 2.60938 5.60524Z" fill="#C2C0BE"/>
<path d="M12.3909 8.39469C12.254 8.25819 12.0685 8.18153 11.8752 8.18153C11.6819 8.18153 11.4964 8.25819 11.3595 8.39469L7.60345 12.1414C7.57595 12.1686 7.53885 12.1838 7.5002 12.1838C7.46156 12.1838 7.42446 12.1686 7.39695 12.1414L3.64087 8.39469C3.50449 8.25792 3.31938 8.18094 3.12624 8.18066C2.9331 8.18039 2.74776 8.25685 2.611 8.39323C2.47423 8.52961 2.39725 8.71473 2.39697 8.90786C2.3967 9.101 2.47316 9.28634 2.60954 9.4231L6.98454 13.787C7.12152 13.9234 7.30693 13.9999 7.5002 13.9999C7.69348 13.9999 7.87889 13.9234 8.01587 13.787L12.3909 9.4231C12.4585 9.35564 12.5122 9.2755 12.5488 9.18726C12.5854 9.09902 12.6043 9.00443 12.6043 8.9089C12.6043 8.81336 12.5854 8.71877 12.5488 8.63053C12.5122 8.5423 12.4585 8.46215 12.3909 8.39469Z" fill="#C2C0BE"/>
</g>
<defs>
<clipPath id="clip0">
<rect width="14" height="14" fill="white" transform="translate(0.5)"/>
</clipPath>
</defs>
</svg>
