<svg width="24" height="24" viewBox="0 0 24 24" fill="none" xmlns="http://www.w3.org/2000/svg">
    <g clip-path="url(#clip0_1352_8736)">
        <path
            d="M24 1.74902C24 1.48381 23.8946 1.22945 23.7071 1.04192C23.5196 0.85438 23.2652 0.749023 23 0.749023C22.7348 0.749023 22.4804 0.85438 22.2929 1.04192C22.1054 1.22945 22 1.48381 22 1.74902V2.52302L3.846 8.38402C3.74541 8.41659 3.65773 8.48021 3.59556 8.56573C3.53339 8.65126 3.49994 8.75429 3.5 8.86002V14.817C3.49999 14.9234 3.53393 15.0271 3.59688 15.1128C3.65982 15.1986 3.7485 15.2621 3.85 15.294L5.15 15.702C5.2515 15.7339 5.34018 15.7974 5.40312 15.8832C5.46607 15.969 5.50001 16.0726 5.5 16.179V18.77C5.5066 19.9596 5.98346 21.0983 6.82652 21.9376C7.66957 22.7769 8.81038 23.2487 10 23.25H10.021C11.2134 23.2431 12.3544 22.7638 13.194 21.9171C14.0335 21.0704 14.5032 19.9254 14.5 18.733V18.633L22 20.983V21.749C22 22.0142 22.1054 22.2686 22.2929 22.4561C22.4804 22.6437 22.7348 22.749 23 22.749C23.2652 22.749 23.5196 22.6437 23.7071 22.4561C23.8946 22.2686 24 22.0142 24 21.749V1.74902ZM12.5 18.738C12.5016 19.0663 12.4385 19.3917 12.3143 19.6957C12.1901 19.9996 12.0073 20.2761 11.7763 20.5093C11.5452 20.7426 11.2705 20.928 10.9678 21.0551C10.6651 21.1822 10.3403 21.2485 10.012 21.25H10C9.33972 21.25 8.70625 20.9888 8.23787 20.5235C7.76948 20.0581 7.50423 19.4263 7.5 18.766V17.119C7.5 17.0405 7.51848 16.9631 7.55395 16.8931C7.58942 16.823 7.64089 16.7623 7.70418 16.7159C7.76748 16.6694 7.84082 16.6386 7.91827 16.6257C7.99572 16.6129 8.07511 16.6185 8.15 16.642L12.15 17.896C12.2515 17.9279 12.3402 17.9914 12.4031 18.0772C12.4661 18.163 12.5 18.2666 12.5 18.373V18.738Z"
            fill="white" />
        <path
            d="M2 8.24902C2 7.98381 1.89464 7.72945 1.70711 7.54192C1.51957 7.35438 1.26522 7.24902 1 7.24902V7.24902C0.734784 7.24902 0.48043 7.35438 0.292893 7.54192C0.105357 7.72945 0 7.98381 0 8.24902L0.005 15.249C0.005 15.3803 0.0308658 15.5104 0.0811205 15.6317C0.131375 15.753 0.205035 15.8633 0.297893 15.9561C0.390752 16.049 0.500991 16.1226 0.622317 16.1729C0.743642 16.2232 0.873678 16.249 1.005 16.249H1C1.26111 16.2491 1.51189 16.147 1.69875 15.9647C1.88562 15.7823 1.99373 15.5341 2 15.273V8.24902Z"
            fill="white" />
    </g>
    <defs>
        <clipPath id="clip0_1352_8736">
            <rect width="24" height="24" fill="white" />
        </clipPath>
    </defs>
</svg>