<svg width="16" height="16" viewBox="0 0 16 16" fill="none" xmlns="http://www.w3.org/2000/svg">
<path fill-rule="evenodd" clip-rule="evenodd" d="M0 9.22239e-08H4.74998V1.5H2.56065L6.28031 5.21967L5.21965 6.28033L1.49999 2.56066V5.25H0V9.22239e-08Z" fill="white"/>
<path fill-rule="evenodd" clip-rule="evenodd" d="M15.9999 16H11.25V14.5H13.4393L9.71964 10.7803L10.7803 9.71967L14.4999 13.4393V10.75H15.9999V16Z" fill="white"/>
<path fill-rule="evenodd" clip-rule="evenodd" d="M16 2.29485e-07V4.75H14.5V2.56066L10.7803 6.28033L9.71969 5.21967L13.4393 1.5L10.75 1.5V0L16 2.29485e-07Z" fill="white"/>
<path fill-rule="evenodd" clip-rule="evenodd" d="M0 16L6.22885e-07 11.25H1.5L1.49999 13.4393L5.21965 9.71967L6.28031 10.7803L2.56065 14.5L5.24998 14.5V16H0Z" fill="white"/>
</svg>
