<svg width="24" height="24" viewBox="0 0 24 24" fill="none" xmlns="http://www.w3.org/2000/svg">
<path d="M18.8048 1.17919V0.612117C18.8048 0.46172 18.7451 0.317483 18.6387 0.211136C18.5324 0.104789 18.3881 0.0450439 18.2378 0.0450439H5.76214C5.61174 0.0450439 5.46751 0.104789 5.36116 0.211136C5.25481 0.317483 5.19507 0.46172 5.19507 0.612117V1.17919H18.8048Z" fill="white"/>
<path d="M21.0732 3.4475V2.88043C21.0732 2.73003 21.0134 2.58579 20.9071 2.47945C20.8007 2.3731 20.6565 2.31335 20.5061 2.31335H3.49389C3.34349 2.31335 3.19926 2.3731 3.09291 2.47945C2.98656 2.58579 2.92682 2.73003 2.92682 2.88043V3.4475H21.0732Z" fill="white"/>
<path d="M7.7032 12.6245C7.79208 12.5618 7.89712 12.5259 8.0058 12.5212C8.11448 12.5165 8.22223 12.5431 8.31621 12.5979L12.0079 14.7513L16.7189 10.4027C16.8135 10.3156 16.9348 10.2632 17.063 10.254C17.1913 10.2448 17.3189 10.2794 17.4249 10.3521L23.3414 14.4198V5.14874C23.3414 4.99834 23.2817 4.8541 23.1753 4.74776C23.069 4.64141 22.9248 4.58167 22.7744 4.58167H1.22558C1.07518 4.58167 0.930947 4.64141 0.8246 4.74776C0.718253 4.8541 0.658508 4.99834 0.658508 5.14874V17.5972L7.7032 12.6245ZM13.7012 6.84996C14.0377 6.84996 14.3666 6.94973 14.6463 7.13666C14.9261 7.3236 15.1441 7.58929 15.2729 7.90015C15.4017 8.21101 15.4354 8.55307 15.3697 8.88307C15.3041 9.21307 15.1421 9.5162 14.9041 9.75412C14.6662 9.99204 14.3631 10.1541 14.0331 10.2197C13.7031 10.2854 13.361 10.2517 13.0502 10.1229C12.7393 9.99414 12.4736 9.77609 12.2867 9.49632C12.0997 9.21656 12 8.88765 12 8.55118C12.0005 8.10014 12.1799 7.66771 12.4988 7.34878C12.8177 7.02985 13.2501 6.85045 13.7012 6.84996Z" fill="white"/>
<path d="M17.1557 11.5432L13.0327 15.3491L15.1211 16.5674C15.1854 16.6049 15.2417 16.6547 15.2868 16.714C15.3319 16.7733 15.3648 16.8409 15.3838 16.9129C15.4027 16.9849 15.4073 17.06 15.3972 17.1337C15.3872 17.2075 15.3627 17.2786 15.3252 17.343C15.2876 17.4073 15.2378 17.4636 15.1785 17.5087C15.1192 17.5537 15.0517 17.5867 14.9796 17.6056C14.8342 17.6439 14.6795 17.6228 14.5496 17.547L8.05983 13.7611L0.658508 18.9856V23.295C0.658508 23.4454 0.718253 23.5896 0.8246 23.696C0.930947 23.8023 1.07518 23.8621 1.22558 23.8621H22.7744C22.9248 23.8621 23.069 23.8023 23.1753 23.696C23.2817 23.5896 23.3414 23.4454 23.3414 23.295V15.796L17.1557 11.5432Z" fill="white"/>
</svg>
