<svg width="16" height="16" viewBox="0 0 16 16" fill="none" xmlns="http://www.w3.org/2000/svg">
<path d="M8.08301 1.33337C8.37968 1.33337 8.66969 1.42026 8.91636 1.58305C9.16304 1.74584 9.3553 1.97721 9.46883 2.24792C9.58236 2.51862 9.61206 2.8165 9.55419 3.10388C9.49631 3.39126 9.35345 3.65523 9.14367 3.86242C8.93389 4.06961 8.66662 4.21071 8.37564 4.26787C8.08467 4.32503 7.78307 4.2957 7.50898 4.18357C7.23489 4.07144 7.00063 3.88155 6.8358 3.63792C6.67098 3.39429 6.58301 3.10786 6.58301 2.81486C6.58301 2.42194 6.74104 2.04512 7.02235 1.76729C7.30365 1.48946 7.68518 1.33337 8.08301 1.33337ZM10.333 14.6667H6.33301C6.06779 14.6667 5.81344 14.5627 5.6259 14.3774C5.43836 14.1922 5.33301 13.941 5.33301 13.6791C5.33301 13.4171 5.43836 13.1659 5.6259 12.9807C5.81344 12.7955 6.06779 12.6914 6.33301 12.6914H7.08301C7.14931 12.6914 7.2129 12.6654 7.25978 12.6191C7.30667 12.5728 7.33301 12.51 7.33301 12.4445V8.00004C7.33301 7.93456 7.30667 7.87175 7.25978 7.82545C7.2129 7.77914 7.14931 7.75313 7.08301 7.75313H6.33301C6.06779 7.75313 5.81344 7.64907 5.6259 7.46385C5.43836 7.27863 5.33301 7.02742 5.33301 6.76547C5.33301 6.50353 5.43836 6.25232 5.6259 6.0671C5.81344 5.88188 6.06779 5.77782 6.33301 5.77782H7.33301C7.86344 5.77782 8.37215 5.98593 8.74722 6.35637C9.12229 6.72682 9.33301 7.22924 9.33301 7.75313V12.4445C9.33301 12.51 9.35935 12.5728 9.40623 12.6191C9.45311 12.6654 9.5167 12.6914 9.58301 12.6914H10.333C10.5982 12.6914 10.8526 12.7955 11.0401 12.9807C11.2277 13.1659 11.333 13.4171 11.333 13.6791C11.333 13.941 11.2277 14.1922 11.0401 14.3774C10.8526 14.5627 10.5982 14.6667 10.333 14.6667Z" fill="white"/>
</svg>
