<svg width="160" height="48" viewBox="0 0 160 48" fill="none" xmlns="http://www.w3.org/2000/svg">
<path d="M5.92593 47.0167H154.074C157.08 47.0167 159.544 44.5496 159.544 41.5385V5.93407C159.544 2.92298 157.08 0.455837 154.074 0.455837H5.92593C2.92049 0.455837 0.455833 2.92298 0.455833 5.93407V41.5385C0.455833 44.5496 2.92049 47.0167 5.92593 47.0167Z" fill="white" stroke="black" stroke-width="0.729332"/>
<path d="M56.4104 12.485C56.4104 13.4668 56.113 14.2531 55.5271 14.8395C54.8535 15.5347 53.9761 15.8845 52.901 15.8845C51.8734 15.8845 50.996 15.5289 50.2763 14.8278C49.5551 14.1164 49.1952 13.2434 49.1952 12.1984C49.1952 11.1534 49.5551 10.2803 50.2763 9.57485C50.996 8.86789 51.8734 8.51221 52.901 8.51221C53.4125 8.51221 53.9003 8.61656 54.3657 8.81057C54.8297 9.00605 55.2074 9.2706 55.481 9.59689L54.8594 10.2171C54.3821 9.66009 53.7322 9.38525 52.901 9.38525C52.1515 9.38525 51.5016 9.64393 50.9499 10.1657C50.4042 10.6889 50.1306 11.3665 50.1306 12.1984C50.1306 13.0303 50.4042 13.7137 50.9499 14.2369C51.5016 14.7528 52.1515 15.0174 52.901 15.0174C53.6965 15.0174 54.3657 14.7528 54.8936 14.2311C55.2416 13.8857 55.4394 13.4095 55.4914 12.801H52.901V11.9515H56.3569C56.3985 12.1352 56.4104 12.313 56.4104 12.485Z" fill="black" stroke="black" stroke-width="0.155591" stroke-miterlimit="10"/>
<path d="M61.8932 9.5394H58.6469V11.7734H61.5735V12.623H58.6469V14.857H61.8932V15.7227H57.7279V8.67371H61.8932V9.5394Z" fill="black" stroke="black" stroke-width="0.155591" stroke-miterlimit="10"/>
<path d="M65.7626 15.7227H64.8436V9.5394H62.8524V8.67371H67.7553V9.5394H65.7626V15.7227Z" fill="black" stroke="black" stroke-width="0.155591" stroke-miterlimit="10"/>
<path d="M71.3032 15.7227V8.67371H72.2207V15.7227H71.3032Z" fill="black" stroke="black" stroke-width="0.155591" stroke-miterlimit="10"/>
<path d="M76.288 15.7227H75.3764V9.5394H73.3778V8.67371H78.2866V9.5394H76.288V15.7227Z" fill="black" stroke="black" stroke-width="0.155591" stroke-miterlimit="10"/>
<path d="M87.5688 14.816C86.8654 15.5289 85.994 15.8845 84.9545 15.8845C83.9091 15.8845 83.0377 15.5289 82.3343 14.816C81.6324 14.1047 81.283 13.2316 81.283 12.1984C81.283 11.1651 81.6324 10.2921 82.3343 9.58073C83.0377 8.86789 83.9091 8.51221 84.9545 8.51221C85.988 8.51221 86.8595 8.86789 87.5628 9.5866C88.2707 10.3038 88.6201 11.171 88.6201 12.1984C88.6201 13.2316 88.2707 14.1047 87.5688 14.816ZM83.0139 14.2252C83.5433 14.7528 84.1872 15.0174 84.9545 15.0174C85.7159 15.0174 86.3658 14.7528 86.8892 14.2252C87.4171 13.6975 87.6848 13.02 87.6848 12.1984C87.6848 11.3768 87.4171 10.6992 86.8892 10.1716C86.3658 9.64393 85.7159 9.37937 84.9545 9.37937C84.1872 9.37937 83.5433 9.64393 83.0139 10.1716C82.486 10.6992 82.2183 11.3768 82.2183 12.1984C82.2183 13.02 82.486 13.6975 83.0139 14.2252Z" fill="black" stroke="black" stroke-width="0.155591" stroke-miterlimit="10"/>
<path d="M89.9094 15.7227V8.67371H91.0247L94.4926 14.1559H94.5327L94.4926 12.8008V8.67371H95.4101V15.7227H94.4524L90.821 9.97004H90.7808L90.821 11.331V15.7227H89.9094Z" fill="black" stroke="black" stroke-width="0.155591" stroke-miterlimit="10"/>
<path d="M81.0571 26.0169C78.2629 26.0169 75.9803 28.1187 75.9803 31.0185C75.9803 33.8949 78.2629 36.0187 81.0571 36.0187C83.8573 36.0187 86.1399 33.8949 86.1399 31.0185C86.1399 28.1187 83.8573 26.0169 81.0571 26.0169ZM81.0571 34.0492C79.5239 34.0492 78.2049 32.7984 78.2049 31.0185C78.2049 29.2151 79.5239 27.9864 81.0571 27.9864C82.5903 27.9864 83.9153 29.2151 83.9153 31.0185C83.9153 32.7984 82.5903 34.0492 81.0571 34.0492ZM69.98 26.0169C67.1798 26.0169 64.9031 28.1187 64.9031 31.0185C64.9031 33.8949 67.1798 36.0187 69.98 36.0187C72.7786 36.0187 75.0568 33.8949 75.0568 31.0185C75.0568 28.1187 72.7786 26.0169 69.98 26.0169ZM69.98 34.0492C68.4453 34.0492 67.1218 32.7984 67.1218 31.0185C67.1218 29.2151 68.4453 27.9864 69.98 27.9864C71.5131 27.9864 72.8322 29.2151 72.8322 31.0185C72.8322 32.7984 71.5131 34.0492 69.98 34.0492ZM56.7986 27.5499V29.6752H61.9335C61.7833 30.8627 61.3817 31.7358 60.7661 32.3443C60.0166 33.0791 58.8493 33.8948 56.7986 33.8948C53.6386 33.8948 51.1641 31.3742 51.1641 28.251C51.1641 25.1277 53.6386 22.6071 56.7986 22.6071C58.5073 22.6071 59.7504 23.267 60.668 24.1224L62.1833 22.6247C60.8999 21.4136 59.1928 20.4833 56.7986 20.4833C52.4653 20.4833 48.8235 23.9681 48.8235 28.251C48.8235 32.5339 52.4653 36.0187 56.7986 36.0187C59.1407 36.0187 60.8999 35.2603 62.2829 33.8375C63.7001 32.4368 64.1417 30.4674 64.1417 28.8771C64.1417 28.3832 64.1001 27.9291 64.0258 27.5499H56.7986ZM110.699 29.1975C110.281 28.079 108.992 26.0169 106.365 26.0169C103.763 26.0169 101.596 28.0437 101.596 31.0185C101.596 33.8199 103.741 36.0187 106.615 36.0187C108.94 36.0187 110.281 34.618 110.833 33.8023L109.108 32.6661C108.532 33.498 107.748 34.0492 106.615 34.0492C105.49 34.0492 104.682 33.5392 104.165 32.5338L110.932 29.7663L110.699 29.1975ZM103.799 30.8627C103.741 28.9344 105.314 27.9467 106.441 27.9467C107.325 27.9467 108.074 28.3832 108.324 29.0079L103.799 30.8627ZM98.2981 35.7144H100.523V21.0168H98.2981V35.7144ZM94.6548 27.131H94.5805C94.0808 26.546 93.1276 26.0169 91.9201 26.0169C89.3862 26.0169 87.0693 28.2157 87.0693 31.0347C87.0693 33.8375 89.3862 36.0187 91.9201 36.0187C93.1276 36.0187 94.0808 35.4851 94.5805 34.8825H94.6548V35.5998C94.6548 37.5119 93.6213 38.5393 91.9543 38.5393C90.5951 38.5393 89.752 37.5693 89.404 36.7535L87.4693 37.5516C88.027 38.8774 89.5036 40.5088 91.9543 40.5088C94.5626 40.5088 96.7635 38.992 96.7635 35.3014V26.3212H94.6548V27.131ZM92.1105 34.0492C90.5773 34.0492 89.294 32.7808 89.294 31.0347C89.294 29.2724 90.5773 27.9864 92.1105 27.9864C93.6213 27.9864 94.8125 29.2724 94.8125 31.0347C94.8125 32.7808 93.6213 34.0492 92.1105 34.0492ZM121.114 21.0168H115.793V35.7144H118.012V30.1455H121.114C123.578 30.1455 125.995 28.3832 125.995 25.5804C125.995 22.779 123.572 21.0168 121.114 21.0168ZM121.172 28.101H118.012V23.0612H121.172C122.829 23.0612 123.775 24.4208 123.775 25.5804C123.775 26.718 122.829 28.101 121.172 28.101ZM134.887 25.989C133.284 25.989 131.617 26.6886 130.932 28.2392L132.901 29.0549C133.324 28.2392 134.104 27.9746 134.928 27.9746C136.079 27.9746 137.246 28.6581 137.264 29.8648V30.0191C136.862 29.7898 136.003 29.4503 134.945 29.4503C132.825 29.4503 130.664 30.604 130.664 32.7573C130.664 34.7267 132.401 35.9951 134.354 35.9951C135.847 35.9951 136.67 35.3293 137.188 34.5548H137.264V35.6909H139.407V30.0529C139.407 27.447 137.438 25.989 134.887 25.989ZM134.62 34.0433C133.894 34.0433 132.883 33.6876 132.883 32.7984C132.883 31.6608 134.144 31.2243 135.235 31.2243C136.212 31.2243 136.67 31.4374 137.264 31.7181C137.09 33.0791 135.905 34.0433 134.62 34.0433ZM147.214 26.3109L144.663 32.6823H144.588L141.951 26.3109H139.558L143.52 35.2147L141.259 40.1693H143.578L149.682 26.3109H147.214ZM127.214 35.7144H129.439V21.0168H127.214V35.7144Z" fill="black"/>
<path d="M12.4139 9.3042C12.0644 9.66576 11.8622 10.2287 11.8622 10.9577V36.9608C11.8622 37.6898 12.0644 38.2527 12.4139 38.6142L12.5001 38.6936L27.2429 24.1282V23.7843L12.5001 9.21896L12.4139 9.3042Z" fill="url(#paint0_linear)"/>
<path d="M32.1518 28.986L27.243 24.1284V23.7845L32.1578 18.9269L32.2678 18.9901L38.0882 22.2633C39.7493 23.1922 39.7493 24.7207 38.0882 25.6555L32.2678 28.9228L32.1518 28.986Z" fill="url(#paint1_linear)"/>
<path d="M32.2676 28.9225L27.2428 23.9561L12.4138 38.6141C12.9655 39.1873 13.8652 39.2564 14.8883 38.6832L32.2676 28.9225Z" fill="url(#paint2_linear)"/>
<path d="M32.2676 18.99L14.8883 9.22926C13.8652 8.66193 12.9655 8.73101 12.4138 9.30422L27.2428 23.9563L32.2676 18.99Z" fill="url(#paint3_linear)"/>
<defs>
<linearGradient id="paint0_linear" x1="25.9339" y1="37.2315" x2="6.20234" y2="17.2677" gradientUnits="userSpaceOnUse">
<stop stop-color="#00A0FF"/>
<stop offset="0.0066" stop-color="#00A1FF"/>
<stop offset="0.2601" stop-color="#00BEFF"/>
<stop offset="0.5122" stop-color="#00D2FF"/>
<stop offset="0.7604" stop-color="#00DFFF"/>
<stop offset="1" stop-color="#00E3FF"/>
</linearGradient>
<linearGradient id="paint1_linear" x1="40.2512" y1="23.9548" x2="11.4653" y2="23.9548" gradientUnits="userSpaceOnUse">
<stop stop-color="#FFE000"/>
<stop offset="0.4087" stop-color="#FFBD00"/>
<stop offset="0.7754" stop-color="#FFA500"/>
<stop offset="1" stop-color="#FF9C00"/>
</linearGradient>
<linearGradient id="paint2_linear" x1="29.5353" y1="21.2563" x2="2.77767" y2="-5.81627" gradientUnits="userSpaceOnUse">
<stop stop-color="#FF3A44"/>
<stop offset="1" stop-color="#C31162"/>
</linearGradient>
<linearGradient id="paint3_linear" x1="8.68105" y1="47.2654" x2="20.6295" y2="35.1763" gradientUnits="userSpaceOnUse">
<stop stop-color="#32A071"/>
<stop offset="0.0685" stop-color="#2DA771"/>
<stop offset="0.4762" stop-color="#15CF74"/>
<stop offset="0.8009" stop-color="#06E775"/>
<stop offset="1" stop-color="#00F076"/>
</linearGradient>
</defs>
</svg>
