<svg width="16" height="16" viewBox="0 0 16 16" fill="none" xmlns="http://www.w3.org/2000/svg">
<path fill-rule="evenodd" clip-rule="evenodd" d="M6 1.99996H2V5.99996H6V1.99996ZM2 0.666626C1.26362 0.666626 0.666668 1.26358 0.666668 1.99996V7.33329H7.33333V0.666626H2Z" fill="#333332"/>
<path d="M3 2.99996H5V4.99996H3V2.99996Z" fill="#333332"/>
<path d="M3 11H5V13H3V11Z" fill="#333332"/>
<path d="M11 11H13V13H11V11Z" fill="#333332"/>
<path d="M11 2.99996H13V4.99996H11V2.99996Z" fill="#333332"/>
<path fill-rule="evenodd" clip-rule="evenodd" d="M6 9.99996H2L2 14H6V9.99996ZM0.666668 8.66663V14C0.666668 14.7363 1.26362 15.3333 2 15.3333H7.33333V8.66663H0.666668Z" fill="#333332"/>
<path fill-rule="evenodd" clip-rule="evenodd" d="M14 1.99996H10V5.99996H14V1.99996ZM8.66667 0.666626V7.33329H15.3333V1.99996C15.3333 1.26358 14.7364 0.666626 14 0.666626H8.66667Z" fill="#333332"/>
<path fill-rule="evenodd" clip-rule="evenodd" d="M12.6667 9.99996H10V11.3333H8.66667V8.66663H12.6667V9.99996ZM8.66667 15.3333V12.6666H10V15.3333H8.66667ZM11.3333 15.3333H14C14.7364 15.3333 15.3333 14.7363 15.3333 14V12.6666H14V14H11.3333V15.3333ZM14 11.3333H15.3333V8.66663H14V11.3333Z" fill="#333332"/>
</svg>
