<svg width="40" height="40" viewBox="0 0 40 40" fill="none" xmlns="http://www.w3.org/2000/svg">
<g clip-path="url(#clip0)">
<path d="M0.289723 15.179C-0.117749 15.6179 -0.0923313 16.3039 0.346503 16.7114C0.405471 16.7662 0.470293 16.8141 0.539881 16.8546L12.6682 23.8744L27.5 12.4999L16.1212 27.3243L23.1424 39.4572C23.4417 39.9759 24.1048 40.1539 24.6235 39.8548C24.8542 39.7216 25.028 39.5081 25.1114 39.2551L36.6089 4.75823C36.797 4.18974 36.4887 3.57636 35.9201 3.38818C35.6989 3.31495 35.4601 3.31494 35.2388 3.38814L0.741914 14.8856C0.56886 14.9438 0.413355 15.0447 0.289723 15.179Z" fill="white"/>
</g>
<defs>
<clipPath id="clip0">
<rect width="40" height="40" fill="white"/>
</clipPath>
</defs>
</svg>
