<svg width="22" height="22" viewBox="0 0 22 22" fill="none" xmlns="http://www.w3.org/2000/svg">
<path d="M5.76 4.30959L3.96 2.51142L2.55 3.92785L4.34 5.72603L5.76 4.30959ZM3 9.99543H0V12.0046H3V9.99543ZM12 0H10V2.96347H12V0ZM19.45 3.92785L18.04 2.51142L16.25 4.30959L17.66 5.72603L19.45 3.92785ZM16.24 17.6904L18.03 19.4986L19.44 18.0822L17.64 16.284L16.24 17.6904ZM19 9.99543V12.0046H22V9.99543H19ZM11 4.9726C7.69 4.9726 5 7.67489 5 11C5 14.3251 7.69 17.0274 11 17.0274C14.31 17.0274 17 14.3251 17 11C17 7.67489 14.31 4.9726 11 4.9726ZM10 22H12V19.0365H10V22ZM2.55 18.0721L3.96 19.4886L5.75 17.6804L4.34 16.2639L2.55 18.0721Z" fill="white"/>
</svg>
