<svg width="160" height="160" viewBox="0 0 160 160" fill="none" xmlns="http://www.w3.org/2000/svg">
<g clip-path="url(#clip0)">
<path d="M79.9928 159.984C124.172 159.984 159.987 124.17 159.987 79.9904C159.987 35.811 124.172 -0.00341797 79.9928 -0.00341797C35.8134 -0.00341797 -0.0010376 35.811 -0.0010376 79.9904C-0.0010376 124.17 35.8134 159.984 79.9928 159.984Z" fill="#0078A4"/>
<path d="M79.9938 107.132C97.1785 107.132 111.109 89.1196 111.109 66.9003C111.109 44.681 97.1785 26.6687 79.9938 26.6687C62.8092 26.6687 48.8783 44.681 48.8783 66.9003C48.8783 89.1196 62.8092 107.132 79.9938 107.132Z" fill="white"/>
<path d="M80.0062 110.109C53.9674 110.109 31.0662 118.064 17.6762 130.119C25.169 139.443 34.6581 146.966 45.4443 152.135C56.2305 157.305 68.0391 159.988 80 159.988C91.9609 159.988 103.769 157.305 114.556 152.135C125.342 146.966 134.831 139.443 142.324 130.119C128.946 118.064 106.033 110.109 80.0062 110.109Z" fill="white"/>
<path d="M83.4895 79.9939H76.5228C69.96 79.9939 64.6399 85.3141 64.6399 91.8769V118.916C64.6399 125.479 69.96 130.799 76.5228 130.799H83.4895C90.0523 130.799 95.3725 125.479 95.3725 118.916V91.8769C95.3725 85.3141 90.0523 79.9939 83.4895 79.9939Z" fill="white"/>
<path d="M53.1769 68.7531C54.9927 73.9782 54.2762 78.9685 51.5711 79.8702C48.8659 80.7719 45.222 77.3998 43.4062 72.1253C41.5904 66.8508 42.3192 61.9223 45.012 61.0082C47.7048 60.0941 51.3734 63.5404 53.1769 68.7531Z" fill="white"/>
<path d="M116.596 72.161C118.409 66.9409 117.689 61.9491 114.989 61.0114C112.289 60.0737 108.63 63.5453 106.818 68.7653C105.005 73.9853 105.724 78.9772 108.425 79.9149C111.125 80.8526 114.783 77.381 116.596 72.161Z" fill="white"/>
<path d="M52.7692 68.5925C48.73 61.1811 44.5673 53.4238 44.7773 45.0366C44.9873 36.6494 51.3734 27.7433 59.7607 28.0892C61.2098 28.2821 62.6736 28.34 64.1334 28.2621C67.0362 27.8545 69.1855 25.4828 71.5448 23.7288C74.2275 21.7819 77.3582 20.5438 80.6468 20.1292C83.9355 19.7146 87.2755 20.137 90.3575 21.3571C94.1373 22.8888 97.3489 25.594 101.03 27.3357C104.493 28.9442 108.29 29.7037 112.105 29.5512C115.92 29.3987 119.644 28.3385 122.968 26.4587C121.563 29.061 119.284 31.0825 116.532 32.1655C119.074 32.9644 121.81 32.8861 124.302 31.9431C122.795 34.6611 120.382 36.7639 117.483 37.8846L123.869 38.3293C122.036 40.9152 119.479 42.9009 116.52 44.0361L121.522 44.1966C120.884 46.0398 119.796 47.6949 118.358 49.0126C116.919 50.3302 115.175 51.2689 113.283 51.7439H116.507L105.934 67.0114C105.018 68.5316 103.814 69.8576 102.389 70.9148C101.109 71.6405 99.7131 72.1379 98.263 72.3847C87.7961 74.7313 77.0279 75.4356 66.3445 74.4723C62.6388 74.1387 58.9331 73.5335 55.9809 71.2977C53.0286 69.0619 51.534 64.6892 53.5104 61.6135" fill="white"/>
<path d="M59.946 117.706C60.1725 113.482 60.6967 109.28 61.5147 105.131C63.6023 107.527 67.1474 107.824 70.3096 107.947L84.7001 108.54C85.2559 111.801 85.6388 115.655 83.2795 117.977C82.112 118.991 80.7044 119.688 79.1909 120.003C75.9724 120.9 72.6499 121.369 69.309 121.399C65.3316 121.399 60.5883 120.225 59.316 116.458L60.5512 115.396" fill="white"/>
<path d="M100.116 117.706C99.8832 113.483 99.359 109.281 98.5471 105.131C96.4595 107.527 92.9144 107.824 89.7398 107.947L75.3617 108.54C74.8058 111.801 74.4106 115.655 76.7822 117.977C77.9483 118.993 79.3565 119.691 80.8708 120.003C84.0892 120.901 87.4117 121.37 90.7527 121.399C94.7302 121.399 99.4735 120.225 100.758 116.458L99.5229 115.396" fill="white"/>
</g>
<defs>
<clipPath id="clip0">
<rect width="160" height="160" fill="white"/>
</clipPath>
</defs>
</svg>
