<?xml version="1.0" standalone="no"?>
<!DOCTYPE svg PUBLIC "-//W3C//DTD SVG 20010904//EN"
 "http://www.w3.org/TR/2001/REC-SVG-20010904/DTD/svg10.dtd">
<svg version="1.0" xmlns="http://www.w3.org/2000/svg"
 width="512.000000pt" height="512.000000pt" viewBox="0 0 512.000000 512.000000"
 preserveAspectRatio="xMidYMid meet">
<metadata>
Created by potrace 1.11, written by Peter Selinger 2001-2013
</metadata>
<g transform="translate(0.000000,512.000000) scale(0.100000,-0.100000)"
fill="#000000" stroke="none">
<path d="M1856 5104 c-29 -29 -34 -48 -40 -190 -4 -78 -9 -152 -11 -165 -2
-13 -7 -46 -10 -74 -21 -196 -63 -411 -115 -600 -17 -60 -32 -117 -35 -125 -8
-32 -86 -251 -114 -321 -99 -251 -246 -531 -409 -778 -66 -102 -228 -322 -287
-390 -208 -243 -442 -478 -635 -636 -195 -160 -204 -169 -197 -209 3 -22 66
-120 176 -277 94 -134 174 -248 179 -254 4 -5 28 -39 52 -75 24 -36 49 -70 54
-77 6 -7 31 -42 56 -78 25 -37 69 -101 99 -143 30 -42 79 -113 109 -157 30
-44 64 -88 76 -97 48 -39 81 -22 296 156 82 68 100 84 220 190 66 60 408 402
465 466 71 80 109 124 150 174 22 27 45 54 50 60 6 6 33 40 60 76 28 36 52 67
55 70 21 20 147 198 237 335 40 61 77 115 81 120 4 6 37 60 72 122 36 62 67
112 70 113 3 0 18 -24 34 -53 73 -130 286 -456 368 -562 50 -65 213 -271 218
-275 3 -3 30 -34 60 -70 180 -213 533 -561 744 -735 27 -22 54 -45 60 -50 6
-6 31 -26 56 -45 25 -19 47 -37 50 -41 3 -3 25 -20 49 -37 46 -34 85 -40 113
-19 14 11 334 461 480 675 24 35 49 70 56 77 6 8 12 18 12 23 0 6 3 12 8 14 4
2 34 41 67 88 32 47 74 108 94 135 122 174 122 174 -18 285 -238 188 -591 535
-728 716 -20 27 -40 51 -44 54 -13 9 -140 182 -212 288 -152 223 -305 505
-412 757 -85 200 -183 507 -221 690 -2 11 -9 45 -16 75 -6 30 -12 62 -13 70
-1 8 -7 42 -13 75 -13 73 -19 111 -27 190 -4 33 -8 76 -11 95 -2 19 -6 90 -10
158 -8 156 -6 147 -32 177 l-22 25 -689 0 c-615 0 -691 -2 -705 -16z"/>
</g>
</svg>
